<svg xmlns="http://www.w3.org/2000/svg" viewBox="0 0 77.8 53.49"><defs><style>.cls-1{fill:#040000;}</style></defs><title>loading_text</title><g id="レイヤー_3" data-name="レイヤー 3"><path class="cls-1" d="M4.68.54v20H17.09v4H0V.54Z"/><path class="cls-1" d="M57,24.55H53.49l-6-24h4.29l3.65,16.34L61.34.32h2.59l5.54,16.56,4-16.34H77.8l-6.49,24H67.78L62.52,9.32Z"/><path class="cls-1" d="M6,30c3.2,0,6,.34,8.53,2.23a11.37,11.37,0,0,1,4.41,9.26,10.94,10.94,0,0,1-4.61,9.26c-2.69,1.89-5.2,2.2-8.4,2.2H0V30ZM4.47,49.12H5.85a9.57,9.57,0,0,0,5.61-1.52,7.43,7.43,0,0,0,2.86-6.09,7.64,7.64,0,0,0-2.82-6.12,9.34,9.34,0,0,0-5.65-1.52H4.47Z"/><path class="cls-1" d="M26.5,30V53H22V30Z"/><path class="cls-1" d="M32.75,53V30h3.1L46.17,45.33V30h4.48V53h-3.1L37.23,37.62V53Z"/><path class="cls-1" d="M67.27,40.69H77.8V41c0,1.55-.2,6.37-3.37,9.5a11,11,0,0,1-8.16,3A11.08,11.08,0,0,1,58,50.39a12.26,12.26,0,0,1-3.41-8.84A11.73,11.73,0,0,1,57.91,33a12.26,12.26,0,0,1,9-3.51,11.21,11.21,0,0,1,5.3,1.2,10.91,10.91,0,0,1,4.31,4.2L72.68,37A6.33,6.33,0,0,0,70,34.28a7.54,7.54,0,0,0-3.23-.72,7.78,7.78,0,0,0-5.3,2,8.57,8.57,0,0,0-2.31,6.06,7.83,7.83,0,0,0,2.27,5.82,7.1,7.1,0,0,0,5.1,2A7.66,7.66,0,0,0,71,48.05a6.12,6.12,0,0,0,2.17-3.51H67.27Z"/></g></svg>